<svg xmlns="http://www.w3.org/2000/svg" version="1.1" xmlns:xlink="http://www.w3.org/1999/xlink" xmlns:svgjs="http://svgjs.dev/svgjs" width="1000" height="320" viewBox="0 0 1000 320"><g transform="matrix(1,0,0,1,-0.606058378230955,-25.56741086767414)"><svg viewBox="0 0 396 127" data-background-color="#ffffff" preserveAspectRatio="xMidYMid meet" height="320" width="1000" xmlns="http://www.w3.org/2000/svg" xmlns:xlink="http://www.w3.org/1999/xlink"><g id="tight-bounds" transform="matrix(1,0,0,1,0.2399991177794618,14.07977037897146)"><svg viewBox="0 0 395.52 112.79544831099948" height="112.79544831099948" width="395.52"><g><svg viewBox="0 0 580.3266407983225 165.4990989473684" height="112.79544831099948" width="395.52"><g transform="matrix(1,0,0,1,184.80664079832255,40.60564854489163)"><svg viewBox="0 0 395.52 84.28780185758514" height="84.28780185758514" width="395.52"><g id="textblocktransform"><svg viewBox="0 0 395.52 84.28780185758514" height="84.28780185758514" width="395.52" id="textblock"><g><svg viewBox="0 0 395.52 84.28780185758514" height="84.28780185758514" width="395.52"><g transform="matrix(1,0,0,1,0,0)"><svg width="395.52" viewBox="3.049999952316284 -40.849998474121094 193.77999877929688 41.29999923706055" height="84.28780185758514" data-palette-color="#1d9bf0"><path d="M7.65 0L3.05 0 3.8-40.5 9.35-40.5 16.5-7.65 23.7-40.5 29.2-40.5 29.95 0 25.4 0 24.95-29.4 18.1 0 14.9 0 8.1-29.4 7.65 0ZM42 0L36.45 0 36.45-40.5 42-40.5 42 0ZM53.35 0L48.55 0 48.55-40.5 52.4-40.5 63.9-13.6 63.9-40.5 68.59-40.5 68.59 0 65 0 53.35-27.65 53.35 0ZM84.19 0L74.94 0 74.94-40.5 83.74-40.5Q88.24-40.5 90.87-39.13 93.49-37.75 94.62-35 95.74-32.25 95.74-28.15L95.74-28.15 95.74-13.25Q95.74-8.95 94.62-6 93.49-3.05 90.97-1.53 88.44 0 84.19 0L84.19 0ZM80.59-36.3L80.59-4.05 83.79-4.05Q86.89-4.05 88.19-5.25 89.49-6.45 89.77-8.75 90.04-11.05 90.04-14.3L90.04-14.3 90.04-27.45Q90.04-30.6 89.64-32.55 89.24-34.5 87.89-35.4 86.54-36.3 83.64-36.3L83.64-36.3 80.59-36.3ZM117.09 0L101.29 0 101.29-40.5 116.99-40.5 116.99-36.3 106.94-36.3 106.94-22.9 115.09-22.9 115.09-18.9 106.94-18.9 106.94-4.05 117.09-4.05 117.09 0ZM131.79 0.45L131.79 0.45Q127.49 0.45 125.11-1.35 122.74-3.15 121.81-6.2 120.89-9.25 120.89-13L120.89-13 120.89-27.3Q120.89-31.4 121.81-34.45 122.74-37.5 125.11-39.18 127.49-40.85 131.79-40.85L131.79-40.85Q135.59-40.85 137.81-39.45 140.04-38.05 141.01-35.45 141.99-32.85 141.99-29.2L141.99-29.2 141.99-26 136.64-26 136.64-28.85Q136.64-31.1 136.41-32.83 136.19-34.55 135.19-35.5 134.19-36.45 131.84-36.45L131.84-36.45Q129.44-36.45 128.34-35.43 127.24-34.4 126.91-32.52 126.59-30.65 126.59-28.15L126.59-28.15 126.59-12.1Q126.59-9.05 127.09-7.28 127.59-5.5 128.74-4.75 129.89-4 131.84-4L131.84-4Q134.14-4 135.14-5.03 136.14-6.05 136.39-7.85 136.64-9.65 136.64-12.05L136.64-12.05 136.64-15.05 141.99-15.05 141.99-12.05Q141.99-8.35 141.09-5.53 140.19-2.7 137.99-1.13 135.79 0.45 131.79 0.45ZM153.04 0L147.39 0 147.39-40.5 153.04-40.5 153.04-23 163.44-23 163.44-40.5 169.09-40.5 169.09 0 163.44 0 163.44-18.95 153.04-18.95 153.04 0ZM185.78 0.45L185.78 0.45Q181.68 0.45 179.23-1.15 176.78-2.75 175.73-5.73 174.68-8.7 174.68-12.7L174.68-12.7 174.68-28.05Q174.68-32.05 175.76-34.93 176.83-37.8 179.26-39.33 181.68-40.85 185.78-40.85L185.78-40.85Q189.88-40.85 192.28-39.3 194.68-37.75 195.76-34.9 196.83-32.05 196.83-28.05L196.83-28.05 196.83-12.65Q196.83-8.7 195.76-5.75 194.68-2.8 192.28-1.18 189.88 0.45 185.78 0.45ZM185.78-4L185.78-4Q188.03-4 189.18-4.93 190.33-5.85 190.73-7.53 191.13-9.2 191.13-11.45L191.13-11.45 191.13-29.2Q191.13-31.45 190.73-33.08 190.33-34.7 189.18-35.58 188.03-36.45 185.78-36.45L185.78-36.45Q183.53-36.45 182.36-35.58 181.18-34.7 180.78-33.08 180.38-31.45 180.38-29.2L180.38-29.2 180.38-11.45Q180.38-9.2 180.78-7.53 181.18-5.85 182.36-4.93 183.53-4 185.78-4Z" opacity="1" transform="matrix(1,0,0,1,0,0)" fill="#1d9bf0" class="wordmark-text-0" data-fill-palette-color="primary" id="text-0"></path></svg></g></svg></g></svg></g></svg></g><g><svg viewBox="0 0 164.90831368699128 165.4990989473684" height="165.4990989473684" width="164.90831368699128"><g><svg xmlns="http://www.w3.org/2000/svg" data-name="Layer 1" viewBox="10.645999908447266 9.767000198364258 490.7080078125 492.4659729003906" x="0" y="0" height="165.4990989473684" width="164.90831368699128" class="icon-icon-0" data-fill-palette-color="accent" id="icon-0"><path d="M192 367.359V440.4c0 34.1 28.671 61.833 64.026 61.833 35.3 0 63.974-27.738 63.974-61.833V367.792c49-23.586 79.65-71.667 79.65-123.893 0-37.5-15.319-72.611-43.158-98.862C327.517 117.714 287.613 103.415 247 105.8a144.924 144.924 0 0 0-95.2 43.283c-25.334 25.849-39.327 59.348-39.453 94.327C112.161 296.294 143 344.386 192 367.359ZM304 397v27H208V397Zm-48.027 88.8c-26.47 0-48.007-19.8-48.024-45.8h96.1C304.031 466 282.5 485.8 255.973 485.8Zm-92.74-325.519a128.962 128.962 0 0 1 84.716-38.51q3.927-0.231 7.84-0.231c33.478 0 65.819 12.581 89.738 35.136 24.6 23.2 38.148 54.172 38.148 87.221 0 47.586-29.411 91.342-74.888 111.472A8.022 8.022 0 0 0 304 362.686V381H264V338.078l27.68-53.492a42.972 42.972 0 0 0 54.593-44.148l-3.654-56.713c0-0.045-0.015-0.088-0.018-0.132q-0.032-0.372-0.1-0.739c-0.013-0.069-0.021-0.14-0.035-0.209a8.074 8.074 0 0 0-0.233-0.883c-0.021-0.066-0.049-0.129-0.072-0.194-0.08-0.226-0.169-0.448-0.269-0.666-0.039-0.085-0.08-0.169-0.123-0.253-0.105-0.212-0.221-0.417-0.346-0.619-0.037-0.06-0.071-0.121-0.109-0.18a8.048 8.048 0 0 0-0.56-0.758l-0.019-0.02a7.848 7.848 0 0 0-0.618-0.647c-0.059-0.056-0.121-0.108-0.181-0.162q-0.261-0.232-0.545-0.442c-0.075-0.055-0.149-0.111-0.226-0.165q-0.312-0.213-0.648-0.4c-0.046-0.026-0.088-0.058-0.134-0.083-0.011-0.006-0.023-0.009-0.033-0.015s-0.026-0.016-0.04-0.023a7.886 7.886 0 0 0-0.823-0.366c-0.064-0.024-0.128-0.043-0.193-0.065-0.237-0.085-0.477-0.158-0.718-0.219-0.081-0.02-0.161-0.038-0.243-0.056-0.243-0.053-0.487-0.095-0.732-0.124-0.065-0.008-0.13-0.019-0.195-0.025a7.967 7.967 0 0 0-1.853 0.036c-0.085 0.012-0.169 0.028-0.254 0.042-0.223 0.038-0.443 0.085-0.662 0.141-0.09 0.023-0.181 0.045-0.27 0.072a7.97 7.97 0 0 0-0.808 0.283c-0.019 0.008-0.039 0.013-0.058 0.021a8.347 8.347 0 0 0-0.835 0.419c-0.026 0.015-0.054 0.025-0.079 0.04l-49.146 28.777a43.031 43.031 0 0 0-19.267 49.753l0.012 0.039a43.043 43.043 0 0 0 15.14 21.519l-28.516 55.024c-0.074 0.144-0.131 0.294-0.2 0.442l-4.02-7.483a42.926 42.926 0 0 0-5.45-70.307l-49.1-28.752c-0.038-0.023-0.079-0.038-0.117-0.059q-0.325-0.183-0.664-0.334c-0.062-0.027-0.123-0.06-0.186-0.086a8.089 8.089 0 0 0-0.847-0.3c-0.086-0.025-0.174-0.043-0.262-0.065-0.212-0.054-0.425-0.1-0.641-0.137-0.1-0.017-0.2-0.032-0.3-0.045-0.233-0.03-0.467-0.049-0.7-0.059-0.069 0-0.137-0.01-0.206-0.011a8.011 8.011 0 0 0-0.928 0.039c-0.045 0-0.089 0.014-0.133 0.019-0.261 0.031-0.521 0.076-0.78 0.133-0.086 0.019-0.172 0.041-0.258 0.063q-0.332 0.085-0.658 0.2c-0.087 0.031-0.175 0.059-0.262 0.093a8.2 8.2 0 0 0-0.756 0.341c-0.031 0.016-0.063 0.026-0.094 0.043l-0.014 0.009-0.018 0.008a8.249 8.249 0 0 0-0.788 0.488c-0.065 0.046-0.127 0.1-0.191 0.144-0.194 0.144-0.38 0.294-0.558 0.453q-0.1 0.085-0.189 0.174c-0.184 0.175-0.357 0.356-0.521 0.545-0.039 0.045-0.081 0.088-0.119 0.134a7.913 7.913 0 0 0-0.561 0.76c-0.014 0.02-0.025 0.043-0.038 0.064a7.974 7.974 0 0 0-0.407 0.727c-0.041 0.082-0.078 0.165-0.116 0.248-0.093 0.2-0.176 0.412-0.252 0.623-0.03 0.085-0.062 0.169-0.09 0.256a8.168 8.168 0 0 0-0.233 0.885c0 0.019 0 0.039-0.008 0.057a8.072 8.072 0 0 0-0.114 0.876c0 0.034-0.01 0.066-0.012 0.1l-3.65 56.684a43.046 43.046 0 0 0 42.87 45.823 43.126 43.126 0 0 0 13.374-2.137L248 365.39V381H208V362.183a8.024 8.024 0 0 0-4.884-7.357c-45.59-19.47-74.95-63.18-74.777-111.359C128.449 212.68 140.833 183.138 163.233 160.283Zm114.234 90.864a27.057 27.057 0 0 1 12.1-31.251L314.8 205.123 284.862 262.89A27.106 27.106 0 0 1 277.467 251.147ZM328.5 213.463L330.3 241.5a27.014 27.014 0 0 1-31.058 28.415ZM243.174 300.14a27.092 27.092 0 0 1-6.374 10.752l-30.281-56.357 24.5 14.347A27.063 27.063 0 0 1 243.174 300.14Zm-52.841-9.662l1.856-28.81 30.62 56.991a26.653 26.653 0 0 1-13.39-0.6l-0.04-0.012A26.743 26.743 0 0 1 190.333 290.478Z" fill="#1d9bf0" data-fill-palette-color="accent"></path><path d="M256 86.812a8 8 0 0 0 8-8V17.767a8 8 0 1 0-16 0V78.812A8 8 0 0 0 256 86.812Z" fill="#1d9bf0" data-fill-palette-color="accent"></path><path d="M82.178 238H18.646a8 8 0 0 0 0 16H82.178a8 8 0 0 0 0-16Z" fill="#1d9bf0" data-fill-palette-color="accent"></path><path d="M493.354 238H429.822a8 8 0 0 0 0 16h63.532a8 8 0 1 0 0-16Z" fill="#1d9bf0" data-fill-palette-color="accent"></path><path d="M128 133.447a8 8 0 0 0 11.021-11.6L93.788 78.873a8 8 0 1 0-11.021 11.6Z" fill="#1d9bf0" data-fill-palette-color="accent"></path><path d="M378.49 135.647a7.975 7.975 0 0 0 5.509-2.2l45.234-42.975a8 8 0 0 0-11.021-11.6l-45.234 42.974a8 8 0 0 0 5.512 13.8Z" fill="#1d9bf0" data-fill-palette-color="accent"></path></svg></g></svg></g></svg></g><defs></defs></svg><rect width="395.52" height="112.79544831099948" fill="none" stroke="none" visibility="hidden"></rect></g></svg></g></svg>